<svg width="20" height="20" viewBox="0 0 20 20" fill="none" xmlns="http://www.w3.org/2000/svg">
<path d="M10 0C15.5228 0 20 4.47715 20 10C20 15.5228 15.5228 20 10 20C4.47715 20 0 15.5228 0 10C0 4.47715 4.47715 0 10 0ZM15.6289 5.88965C15.1995 5.54257 14.5699 5.60888 14.2227 6.03809L9.01367 12.4805L5.625 9.76953C5.19374 9.42452 4.56376 9.49452 4.21875 9.92578C3.87415 10.3569 3.94417 10.9861 4.375 11.3311L8.54199 14.665L9.31934 15.2861L9.94434 14.5127L15.7773 7.2959C16.1244 6.86655 16.058 6.23691 15.6289 5.88965Z" fill="white"/>
</svg>
