<svg width="18" height="19" viewBox="0 0 18 19" fill="none" xmlns="http://www.w3.org/2000/svg">
<path d="M10.2209 12.3537H0V8.75284H10.0732C10.781 8.75284 11.3565 8.65743 11.7997 8.46662C12.2491 8.26965 12.5784 7.99266 12.7876 7.63565C13.0031 7.27249 13.1077 6.83546 13.1016 6.32457C13.1077 5.83215 13.0031 5.38589 12.7876 4.9858C12.5784 4.57955 12.2583 4.25639 11.8274 4.01634C11.4027 3.77628 10.8672 3.65625 10.2209 3.65625H7.11861V18.9091H2.57599V0H10.2209C11.7474 0 13.0708 0.270833 14.1911 0.8125C15.3113 1.35417 16.1761 2.09588 16.7855 3.03764C17.3949 3.9794 17.6965 5.0535 17.6903 6.25994C17.6965 7.55256 17.3857 8.65128 16.7578 9.55611C16.1361 10.4609 15.2621 11.1534 14.1357 11.6335C13.0154 12.1136 11.7105 12.3537 10.2209 12.3537ZM11.2273 13.3878V16.9794H0V13.3878H11.2273Z" fill="#545F82"/>
</svg>
