<svg width="36" height="20" viewBox="0 0 36 20" fill="none" xmlns="http://www.w3.org/2000/svg">
<path d="M17.7273 7.34943H12.5199C12.483 6.91856 12.3845 6.5277 12.2244 6.17685C12.0705 5.82599 11.8551 5.52438 11.5781 5.27202C11.3073 5.01349 10.978 4.81653 10.5902 4.68111C10.2024 4.53954 9.76231 4.46875 9.26989 4.46875C8.40814 4.46875 7.67874 4.67803 7.08168 5.09659C6.49077 5.51515 6.04143 6.11529 5.73366 6.89702C5.43205 7.67874 5.28125 8.61743 5.28125 9.71307C5.28125 10.8703 5.43513 11.8397 5.7429 12.6214C6.05682 13.397 6.50923 13.9818 7.10014 14.3757C7.69105 14.7635 8.40199 14.9574 9.23295 14.9574C9.70691 14.9574 10.1316 14.8989 10.5071 14.782C10.8826 14.6589 11.2088 14.4834 11.4858 14.2557C11.7628 14.0279 11.9875 13.754 12.1598 13.4339C12.3383 13.1077 12.4583 12.7415 12.5199 12.3352L17.7273 12.3722C17.6657 13.1723 17.4411 13.9879 17.0533 14.8189C16.6655 15.6437 16.1146 16.407 15.4006 17.1087C14.6927 17.8042 13.8156 18.3643 12.7692 18.7891C11.7228 19.2138 10.5071 19.4261 9.12216 19.4261C7.38636 19.4261 5.82907 19.0537 4.45028 18.309C3.07765 17.5642 1.99124 16.4685 1.19105 15.022C0.397017 13.5755 0 11.8059 0 9.71307C0 7.60796 0.40625 5.83523 1.21875 4.39489C2.03125 2.94839 3.12689 1.85582 4.50568 1.11719C5.88447 0.372396 7.4233 0 9.12216 0C10.3163 0 11.415 0.163115 12.4183 0.489346C13.4216 0.815578 14.3018 1.29261 15.0589 1.92045C15.8161 2.54214 16.4254 3.30848 16.8871 4.21946C17.3487 5.13045 17.6288 6.17377 17.7273 7.34943Z" fill="#545F82"/>
<path d="M19.5392 4.39489V0.258523H35.9739V4.39489H30.2864V19.1676H25.2267V4.39489H19.5392Z" fill="#545F82"/>
</svg>
